<mxfile host="app.diagrams.net" modified="2021-03-13T07:08:05.510Z" agent="5.0 (Windows NT 10.0; Win64; x64) AppleWebKit/537.36 (KHTML, like Gecko) Chrome/88.0.4324.186 Safari/537.36" etag="b1vRo7A6EvxOva1uelps" version="14.4.8" type="github">
  <diagram id="C5RBs43oDa-KdzZeNtuy" name="Page-1">
    <mxGraphModel dx="1028" dy="584" grid="1" gridSize="10" guides="1" tooltips="1" connect="1" arrows="1" fold="1" page="1" pageScale="1" pageWidth="413" pageHeight="583" background="#FFFFFF" math="0" shadow="0">
      <root>
        <mxCell id="WIyWlLk6GJQsqaUBKTNV-0" />
        <mxCell id="WIyWlLk6GJQsqaUBKTNV-1" parent="WIyWlLk6GJQsqaUBKTNV-0" />
        <mxCell id="-dxW9wcBUc4BnaEZA0Z--6" value="" style="edgeStyle=orthogonalEdgeStyle;rounded=0;orthogonalLoop=1;jettySize=auto;html=1;" edge="1" parent="WIyWlLk6GJQsqaUBKTNV-1" source="WIyWlLk6GJQsqaUBKTNV-3" target="-dxW9wcBUc4BnaEZA0Z--0">
          <mxGeometry relative="1" as="geometry" />
        </mxCell>
        <mxCell id="WIyWlLk6GJQsqaUBKTNV-3" value="START" style="rounded=1;whiteSpace=wrap;html=1;fontSize=12;glass=0;strokeWidth=1;shadow=0;fillColor=#00CC00;" parent="WIyWlLk6GJQsqaUBKTNV-1" vertex="1">
          <mxGeometry x="147" y="92" width="120" height="40" as="geometry" />
        </mxCell>
        <mxCell id="WIyWlLk6GJQsqaUBKTNV-11" value="&lt;font color=&quot;#ffffff&quot;&gt;STOP&lt;/font&gt;" style="rounded=1;whiteSpace=wrap;html=1;fontSize=12;glass=0;strokeWidth=1;shadow=0;fillColor=#FF0000;strokeColor=#000000;" parent="WIyWlLk6GJQsqaUBKTNV-1" vertex="1">
          <mxGeometry x="147" y="452" width="120" height="40" as="geometry" />
        </mxCell>
        <mxCell id="-dxW9wcBUc4BnaEZA0Z--3" value="" style="edgeStyle=orthogonalEdgeStyle;rounded=0;orthogonalLoop=1;jettySize=auto;html=1;" edge="1" parent="WIyWlLk6GJQsqaUBKTNV-1" source="-dxW9wcBUc4BnaEZA0Z--0" target="-dxW9wcBUc4BnaEZA0Z--1">
          <mxGeometry relative="1" as="geometry" />
        </mxCell>
        <mxCell id="-dxW9wcBUc4BnaEZA0Z--0" value="&lt;font color=&quot;#ffffff&quot;&gt;Declare variable name&lt;/font&gt;" style="rounded=0;whiteSpace=wrap;html=1;fillColor=#0000CC;" vertex="1" parent="WIyWlLk6GJQsqaUBKTNV-1">
          <mxGeometry x="127" y="182" width="160" height="40" as="geometry" />
        </mxCell>
        <mxCell id="-dxW9wcBUc4BnaEZA0Z--4" value="" style="edgeStyle=orthogonalEdgeStyle;rounded=0;orthogonalLoop=1;jettySize=auto;html=1;" edge="1" parent="WIyWlLk6GJQsqaUBKTNV-1" source="-dxW9wcBUc4BnaEZA0Z--1" target="-dxW9wcBUc4BnaEZA0Z--2">
          <mxGeometry relative="1" as="geometry" />
        </mxCell>
        <mxCell id="-dxW9wcBUc4BnaEZA0Z--1" value="&lt;font color=&quot;#ffffff&quot;&gt;Read name&lt;/font&gt;" style="shape=parallelogram;perimeter=parallelogramPerimeter;whiteSpace=wrap;html=1;fixedSize=1;fillColor=#0000CC;" vertex="1" parent="WIyWlLk6GJQsqaUBKTNV-1">
          <mxGeometry x="127" y="272" width="160" height="40" as="geometry" />
        </mxCell>
        <mxCell id="-dxW9wcBUc4BnaEZA0Z--5" value="" style="edgeStyle=orthogonalEdgeStyle;rounded=0;orthogonalLoop=1;jettySize=auto;html=1;" edge="1" parent="WIyWlLk6GJQsqaUBKTNV-1" source="-dxW9wcBUc4BnaEZA0Z--2" target="WIyWlLk6GJQsqaUBKTNV-11">
          <mxGeometry relative="1" as="geometry" />
        </mxCell>
        <mxCell id="-dxW9wcBUc4BnaEZA0Z--2" value="&lt;font color=&quot;#ffffff&quot;&gt;Print Hello name&lt;/font&gt;" style="shape=parallelogram;perimeter=parallelogramPerimeter;whiteSpace=wrap;html=1;fixedSize=1;fillColor=#0000CC;" vertex="1" parent="WIyWlLk6GJQsqaUBKTNV-1">
          <mxGeometry x="125" y="362" width="163" height="40" as="geometry" />
        </mxCell>
      </root>
    </mxGraphModel>
  </diagram>
</mxfile>
